<svg xmlns="http://www.w3.org/2000/svg" viewBox="0 0 24 24">
	<path fill="#41A85F" d="M23.5,0h-23C0.224,0,0,0.224,0,0.5v23C0,23.776,0.224,24,0.5,24h15c0.139,0,0.264-0.056,0.354-0.147l7.998-7.999
		C23.943,15.764,24,15.639,24,15.5v-15C24,0.224,23.776,0,23.5,0z M9.745,16.167c-0.387,0.431-1.051,0.443-1.452,0.039l-3-3
		c-0.391-0.39-0.391-1.023,0-1.413c0.391-0.391,1.023-0.391,1.414,0l2.253,2.253l7.795-8.713c0.368-0.411,0.999-0.446,1.412-0.078
		c0.411,0.368,0.446,1.001,0.078,1.412L9.745,16.167z M16,22.293V16h6.293L16,22.293z"/>
</svg>
