<svg xmlns="http://www.w3.org/2000/svg" viewBox="0 0 24 24">
	<path fill="#41A85F" d="M23.5,10h-2.84c-0.211-0.911-0.575-1.762-1.044-2.543l4.05-5.014c0.521-0.644,0.42-1.589-0.225-2.109
		c-0.645-0.521-1.588-0.421-2.109,0.225L17.624,5.15C16.582,4.292,15.355,3.652,14,3.34V0.5C14,0.224,13.776,0,13.5,0h-3
		C10.224,0,10,0.224,10,0.5v2.856C9.211,3.555,8.335,3.809,7.67,4.132L5.636,2.102c-0.195-0.196-0.512-0.196-0.707,0L2.101,4.929
		c-0.195,0.195-0.195,0.512,0,0.707L4.133,7.67C3.81,8.332,3.555,9.21,3.355,10H0.5C0.224,10,0,10.224,0,10.5v3
		C0,13.776,0.224,14,0.5,14h2.855c0.201,0.791,0.456,1.668,0.778,2.331l-2.032,2.034c-0.195,0.195-0.195,0.511,0,0.707l2.828,2.828
		c0.195,0.195,0.512,0.195,0.707,0l2.032-2.034c0.663,0.323,1.54,0.579,2.332,0.78V23.5c0,0.276,0.224,0.5,0.5,0.5h3
		c0.276,0,0.5-0.224,0.5-0.5v-2.854c0.791-0.201,1.668-0.456,2.33-0.778l2.034,2.032c0.195,0.195,0.512,0.195,0.707,0l2.828-2.828
		c0.195-0.195,0.195-0.512,0-0.707l-2.032-2.033c0.322-0.663,0.578-1.54,0.778-2.331H23.5c0.276,0,0.5-0.224,0.5-0.5v-3
		C24,10.224,23.776,10,23.5,10z M12.38,14.814C12.289,14.925,12.155,15,12,15c-0.148,0-0.277-0.066-0.368-0.168l-4.005-4.5
		C7.443,10.126,7.461,9.81,7.668,9.627C7.873,9.442,8.19,9.461,8.373,9.668l3.608,4.059L22.111,1.186
		c0.174-0.215,0.489-0.249,0.703-0.075c0.215,0.174,0.249,0.488,0.075,0.703L12.38,14.814z"/>
</svg>
